<?xml version="1.0" encoding="UTF-8"?>
<svg xmlns="http://www.w3.org/2000/svg" viewBox="0 0 64 64" width="64" height="64">
  <!-- ramalama.ai logo - stylized llama -->
  <defs>
    <linearGradient id="llama-grad" x1="0%" y1="0%" x2="100%" y2="100%">
      <stop offset="0%" style="stop-color:#8B5CF6"/>
      <stop offset="100%" style="stop-color:#6366F1"/>
    </linearGradient>
  </defs>
  <!-- Llama silhouette -->
  <path fill="url(#llama-grad)" d="M20 52V28c0-8 4-14 12-14s12 6 12 14v24h-6V36h-12v16h-6zm6-22c0 2.2 1.8 4 4 4h4c2.2 0 4-1.8 4-4v-2c0-2.2-1.8-4-4-4h-4c-2.2 0-4 1.8-4 4v2z"/>
  <!-- Ears -->
  <path fill="url(#llama-grad)" d="M24 14l-4-8 6 4v4h-2zm16 0l4-8-6 4v4h2z"/>
  <!-- Eyes -->
  <circle cx="28" cy="22" r="2" fill="#FFF"/>
  <circle cx="36" cy="22" r="2" fill="#FFF"/>
  <!-- AI indicator dots -->
  <circle cx="50" cy="10" r="3" fill="#8B5CF6"/>
  <circle cx="56" cy="16" r="2" fill="#A78BFA"/>
  <circle cx="54" cy="8" r="1.5" fill="#C4B5FD"/>
</svg>
