<svg width="192" height="192" viewBox="0 0 192 192" fill="none" xmlns="http://www.w3.org/2000/svg">
<path d="M96 174C139.078 174 174 139.078 174 96C174 52.9218 139.078 18 96 18C52.9218 18 18 52.9218 18 96C18 139.078 52.9218 174 96 174Z" fill="url(#paint0_linear_13_22)"/>
<path d="M95.9999 150.6C126.155 150.6 150.6 126.155 150.6 95.9999C150.6 65.8452 126.155 41.3999 95.9999 41.3999C65.8452 41.3999 41.3999 65.8452 41.3999 95.9999C41.3999 126.155 65.8452 150.6 95.9999 150.6Z" stroke="white" stroke-width="10.92"/>
<path d="M47.25 113.55C79.75 82.3499 112.25 82.3499 144.75 113.55" stroke="white" stroke-width="10.92" stroke-linecap="round"/>
<defs>
<linearGradient id="paint0_linear_13_22" x1="139" y1="18" x2="31.5" y2="161.5" gradientUnits="userSpaceOnUse">
<stop stop-color="#FFC27C"/>
<stop offset="1" stop-color="#BB4639"/>
</linearGradient>
</defs>
</svg>
